<?xml version="1.0" encoding="us-ascii" standalone="no"?><svg xmlns="http://www.w3.org/2000/svg" xmlns:xlink="http://www.w3.org/1999/xlink" contentStyleType="text/css" height="458px" preserveAspectRatio="none" style="width:227px;height:458px;background:#FFFFFF;" version="1.1" viewBox="0 0 227 458" width="227px" zoomAndPan="magnify"><defs/><g><!--class Empresa--><g id="elem_Empresa"><rect codeLine="2" fill="#F1F1F1" height="80.5938" id="Empresa" rx="2.5" ry="2.5" style="stroke:#181818;stroke-width:0.5;" width="192" x="17.5" y="7"/><ellipse cx="78.75" cy="23" fill="#ADD1B2" rx="11" ry="11" style="stroke:#181818;stroke-width:1.0;"/><path d="M82.8594,29 L75.1406,29 L75.1406,16.6094 L82.8594,16.6094 L82.8594,18.7656 L77.5938,18.7656 L77.5938,21.4375 L82.3594,21.4375 L82.3594,23.5938 L77.5938,23.5938 L77.5938,26.8438 L82.8594,26.8438 L82.8594,29 Z " fill="#000000"/><text fill="#000000" font-family="sans-serif" font-size="14" lengthAdjust="spacing" textLength="61" x="99.25" y="27.8467">Empresa</text><line style="stroke:#181818;stroke-width:0.5;" x1="18.5" x2="208.5" y1="39" y2="39"/><ellipse cx="28.5" cy="52.6484" fill="#000000" rx="3" ry="3" style="stroke:#000000;stroke-width:1.0;"/><text fill="#000000" font-family="sans-serif" font-size="14" font-weight="bold" lengthAdjust="spacing" textLength="14" x="37.5" y="55.9951">id</text><text fill="#000000" font-family="sans-serif" font-size="14" lengthAdjust="spacing" textLength="148" x="55.5" y="55.9951">number &#171;generated&#187;</text><line style="stroke:#181818;stroke-width:1.0;" x1="18.5" x2="208.5" y1="63.2969" y2="63.2969"/><ellipse cx="28.5" cy="76.9453" fill="#000000" rx="3" ry="3" style="stroke:#000000;stroke-width:1.0;"/><text fill="#000000" font-family="sans-serif" font-size="14" font-weight="bold" lengthAdjust="spacing" textLength="44" x="37.5" y="80.292">nome</text><text fill="#000000" font-family="sans-serif" font-size="14" lengthAdjust="spacing" textLength="26" x="85.5" y="80.292">text</text></g><!--class Papel--><g id="elem_Papel"><rect codeLine="8" fill="#F1F1F1" height="80.5938" id="Papel" rx="2.5" ry="2.5" style="stroke:#181818;stroke-width:0.5;" width="213" x="7" y="148"/><ellipse cx="90.25" cy="164" fill="#ADD1B2" rx="11" ry="11" style="stroke:#181818;stroke-width:1.0;"/><path d="M94.3594,170 L86.6406,170 L86.6406,157.6094 L94.3594,157.6094 L94.3594,159.7656 L89.0938,159.7656 L89.0938,162.4375 L93.8594,162.4375 L93.8594,164.5938 L89.0938,164.5938 L89.0938,167.8438 L94.3594,167.8438 L94.3594,170 Z " fill="#000000"/><text fill="#000000" font-family="sans-serif" font-size="14" lengthAdjust="spacing" textLength="38" x="110.75" y="168.8467">Papel</text><line style="stroke:#181818;stroke-width:0.5;" x1="8" x2="219" y1="180" y2="180"/><ellipse cx="18" cy="193.6484" fill="#000000" rx="3" ry="3" style="stroke:#000000;stroke-width:1.0;"/><text fill="#000000" font-family="sans-serif" font-size="14" font-weight="bold" lengthAdjust="spacing" textLength="53" x="27" y="196.9951">codigo</text><text fill="#000000" font-family="sans-serif" font-size="14" lengthAdjust="spacing" textLength="26" x="84" y="196.9951">text</text><line style="stroke:#181818;stroke-width:1.0;" x1="8" x2="219" y1="204.2969" y2="204.2969"/><ellipse cx="18" cy="217.9453" fill="#000000" rx="3" ry="3" style="stroke:#000000;stroke-width:1.0;"/><text fill="#000000" font-family="sans-serif" font-size="14" font-weight="bold" lengthAdjust="spacing" textLength="90" x="27" y="221.292">empresa_id</text><text fill="#000000" font-family="sans-serif" font-size="14" lengthAdjust="spacing" textLength="93" x="121" y="221.292">number &#171;FK&#187;</text></g><!--class Lancamento--><g id="elem_Lancamento"><rect codeLine="14" fill="#F1F1F1" height="162.0781" id="Lancamento" rx="2.5" ry="2.5" style="stroke:#181818;stroke-width:0.5;" width="198" x="14.5" y="289"/><ellipse cx="66.75" cy="305" fill="#ADD1B2" rx="11" ry="11" style="stroke:#181818;stroke-width:1.0;"/><path d="M70.8594,311 L63.1406,311 L63.1406,298.6094 L70.8594,298.6094 L70.8594,300.7656 L65.5938,300.7656 L65.5938,303.4375 L70.3594,303.4375 L70.3594,305.5938 L65.5938,305.5938 L65.5938,308.8438 L70.8594,308.8438 L70.8594,311 Z " fill="#000000"/><text fill="#000000" font-family="sans-serif" font-size="14" lengthAdjust="spacing" textLength="85" x="87.25" y="309.8467">Lancamento</text><line style="stroke:#181818;stroke-width:0.5;" x1="15.5" x2="211.5" y1="321" y2="321"/><ellipse cx="25.5" cy="334.6484" fill="#000000" rx="3" ry="3" style="stroke:#000000;stroke-width:1.0;"/><text fill="#000000" font-family="sans-serif" font-size="14" font-weight="bold" lengthAdjust="spacing" textLength="14" x="34.5" y="337.9951">id</text><text fill="#000000" font-family="sans-serif" font-size="14" lengthAdjust="spacing" textLength="148" x="52.5" y="337.9951">number &#171;generated&#187;</text><line style="stroke:#181818;stroke-width:1.0;" x1="15.5" x2="211.5" y1="345.2969" y2="345.2969"/><ellipse cx="25.5" cy="358.9453" fill="#000000" rx="3" ry="3" style="stroke:#000000;stroke-width:1.0;"/><text fill="#000000" font-family="sans-serif" font-size="14" font-weight="bold" lengthAdjust="spacing" textLength="103" x="34.5" y="362.292">papel_codigo</text><text fill="#000000" font-family="sans-serif" font-size="14" lengthAdjust="spacing" textLength="65" x="141.5" y="362.292">text &#171;FK&#187;</text><ellipse cx="25.5" cy="375.2422" fill="#000000" rx="3" ry="3" style="stroke:#000000;stroke-width:1.0;"/><text fill="#000000" font-family="sans-serif" font-size="14" font-weight="bold" lengthAdjust="spacing" textLength="131" x="34.5" y="378.5889">data_negociacao</text><text fill="#000000" font-family="sans-serif" font-size="14" lengthAdjust="spacing" textLength="31" x="169.5" y="378.5889">date</text><ellipse cx="25.5" cy="391.5391" fill="#000000" rx="3" ry="3" style="stroke:#000000;stroke-width:1.0;"/><text fill="#000000" font-family="sans-serif" font-size="14" font-weight="bold" lengthAdjust="spacing" textLength="88" x="34.5" y="394.8857">tipo_ordem</text><text fill="#000000" font-family="sans-serif" font-size="14" lengthAdjust="spacing" textLength="26" x="126.5" y="394.8857">text</text><ellipse cx="25.5" cy="407.8359" fill="#000000" rx="3" ry="3" style="stroke:#000000;stroke-width:1.0;"/><text fill="#000000" font-family="sans-serif" font-size="14" font-weight="bold" lengthAdjust="spacing" textLength="88" x="34.5" y="411.1826">quantidade</text><text fill="#000000" font-family="sans-serif" font-size="14" lengthAdjust="spacing" textLength="54" x="126.5" y="411.1826">number</text><ellipse cx="25.5" cy="424.1328" fill="#000000" rx="3" ry="3" style="stroke:#000000;stroke-width:1.0;"/><text fill="#000000" font-family="sans-serif" font-size="14" font-weight="bold" lengthAdjust="spacing" textLength="106" x="34.5" y="427.4795">valor_unitario</text><text fill="#000000" font-family="sans-serif" font-size="14" lengthAdjust="spacing" textLength="54" x="144.5" y="427.4795">number</text><ellipse cx="25.5" cy="440.4297" fill="#000000" rx="3" ry="3" style="stroke:#000000;stroke-width:1.0;"/><text fill="#000000" font-family="sans-serif" font-size="14" font-weight="bold" lengthAdjust="spacing" textLength="81" x="34.5" y="443.7764">valor_total</text><text fill="#000000" font-family="sans-serif" font-size="14" lengthAdjust="spacing" textLength="54" x="119.5" y="443.7764">number</text></g><!--link Empresa to Papel--><g id="link_Empresa_Papel"><path codeLine="25" d="M113.5,96.33 C113.5,114.94 113.5,121.05 113.5,139.66 " fill="none" id="Empresa-Papel" style="stroke:#181818;stroke-width:1.0;"/><line style="stroke:#181818;stroke-width:1.0;" x1="109.5" x2="117.5" y1="92.33" y2="92.33"/><line style="stroke:#181818;stroke-width:1.0;" x1="109.5" x2="117.5" y1="95.33" y2="95.33"/><line style="stroke:#181818;stroke-width:1.0;" x1="113.5" x2="113.5" y1="96.33" y2="88.33"/><line style="stroke:#181818;stroke-width:1.0;" x1="113.5" x2="121.5" y1="139.66" y2="147.66"/><line style="stroke:#181818;stroke-width:1.0;" x1="113.5" x2="105.5" y1="139.66" y2="147.66"/><line style="stroke:#181818;stroke-width:1.0;" x1="113.5" x2="113.5" y1="139.66" y2="147.66"/></g><!--link Papel to Lancamento--><g id="link_Papel_Lancamento"><path codeLine="26" d="M113.5,241.34 C113.5,258.9 113.5,260.19 113.5,280.81 " fill="none" id="Papel-Lancamento" style="stroke:#181818;stroke-width:1.0;"/><polygon fill="none" points="113.5,229.34,109.5,235.34,113.5,241.34,117.5,235.34,113.5,229.34" style="stroke:#181818;stroke-width:1.0;"/><line style="stroke:#181818;stroke-width:1.0;" x1="113.5" x2="121.5" y1="280.81" y2="288.81"/><line style="stroke:#181818;stroke-width:1.0;" x1="113.5" x2="105.5" y1="280.81" y2="288.81"/><line style="stroke:#181818;stroke-width:1.0;" x1="113.5" x2="113.5" y1="280.81" y2="288.81"/></g><!--SRC=[bP113i8W54Jtd88rIM_GTASRNNW3yeMVXgJm4N-DflNkKYkY2nSkOHupms1WnpUvyJ7X6UGaf9HAAkMiKZAC_eX9jcsF0HCmsgxBGDCKAf37p35UMTo5mDNi0167QcN8kfuAzlaSrrJz7RRTvPJgjeTWmES3_TikBZtqLtonVn4M67J0dem30mkKRx2ex29fIXPzBVyKJYFaRXOilciKwG839Jq6nv0S_P2P68QgvR-M_UUvQQPrGB7EICj5tU01]--></g></svg>