<?xml version="1.0" encoding="us-ascii" standalone="no"?><svg xmlns="http://www.w3.org/2000/svg" xmlns:xlink="http://www.w3.org/1999/xlink" contentStyleType="text/css" height="408px" preserveAspectRatio="none" style="width:240px;height:408px;background:#FFFFFF;" version="1.1" viewBox="0 0 240 408" width="240px" zoomAndPan="magnify"><defs/><g><!--class Carteira--><g id="elem_Carteira"><rect codeLine="2" fill="#F1F1F1" height="96.8906" id="Carteira" rx="2.5" ry="2.5" style="stroke:#181818;stroke-width:0.5;" width="192" x="24" y="7"/><ellipse cx="89.25" cy="23" fill="#ADD1B2" rx="11" ry="11" style="stroke:#181818;stroke-width:1.0;"/><path d="M93.3594,29 L85.6406,29 L85.6406,16.6094 L93.3594,16.6094 L93.3594,18.7656 L88.0938,18.7656 L88.0938,21.4375 L92.8594,21.4375 L92.8594,23.5938 L88.0938,23.5938 L88.0938,26.8438 L93.3594,26.8438 L93.3594,29 Z " fill="#000000"/><text fill="#000000" font-family="sans-serif" font-size="14" lengthAdjust="spacing" textLength="53" x="109.75" y="27.8467">Carteira</text><line style="stroke:#181818;stroke-width:0.5;" x1="25" x2="215" y1="39" y2="39"/><ellipse cx="35" cy="52.6484" fill="#000000" rx="3" ry="3" style="stroke:#000000;stroke-width:1.0;"/><text fill="#000000" font-family="sans-serif" font-size="14" font-weight="bold" lengthAdjust="spacing" textLength="14" x="44" y="55.9951">id</text><text fill="#000000" font-family="sans-serif" font-size="14" lengthAdjust="spacing" textLength="148" x="62" y="55.9951">number &#171;generated&#187;</text><line style="stroke:#181818;stroke-width:1.0;" x1="25" x2="215" y1="63.2969" y2="63.2969"/><ellipse cx="35" cy="76.9453" fill="#000000" rx="3" ry="3" style="stroke:#000000;stroke-width:1.0;"/><text fill="#000000" font-family="sans-serif" font-size="14" font-weight="bold" lengthAdjust="spacing" textLength="44" x="44" y="80.292">nome</text><text fill="#000000" font-family="sans-serif" font-size="14" lengthAdjust="spacing" textLength="26" x="92" y="80.292">text</text><ellipse cx="35" cy="93.2422" fill="#000000" rx="3" ry="3" style="stroke:#000000;stroke-width:1.0;"/><text fill="#000000" font-family="sans-serif" font-size="14" font-weight="bold" lengthAdjust="spacing" textLength="39" x="44" y="96.5889">peso</text><text fill="#000000" font-family="sans-serif" font-size="14" lengthAdjust="spacing" textLength="54" x="87" y="96.5889">number</text></g><!--class Empresa--><g id="elem_Empresa"><rect codeLine="9" fill="#F1F1F1" height="96.8906" id="Empresa" rx="2.5" ry="2.5" style="stroke:#181818;stroke-width:0.5;" width="213" x="13.5" y="164"/><ellipse cx="85.25" cy="180" fill="#ADD1B2" rx="11" ry="11" style="stroke:#181818;stroke-width:1.0;"/><path d="M89.3594,186 L81.6406,186 L81.6406,173.6094 L89.3594,173.6094 L89.3594,175.7656 L84.0938,175.7656 L84.0938,178.4375 L88.8594,178.4375 L88.8594,180.5938 L84.0938,180.5938 L84.0938,183.8438 L89.3594,183.8438 L89.3594,186 Z " fill="#000000"/><text fill="#000000" font-family="sans-serif" font-size="14" lengthAdjust="spacing" textLength="61" x="105.75" y="184.8467">Empresa</text><line style="stroke:#181818;stroke-width:0.5;" x1="14.5" x2="225.5" y1="196" y2="196"/><ellipse cx="24.5" cy="209.6484" fill="#000000" rx="3" ry="3" style="stroke:#000000;stroke-width:1.0;"/><text fill="#000000" font-family="sans-serif" font-size="14" font-weight="bold" lengthAdjust="spacing" textLength="90" x="33.5" y="212.9951">empresa_id</text><text fill="#000000" font-family="sans-serif" font-size="14" lengthAdjust="spacing" textLength="93" x="127.5" y="212.9951">number &#171;FK&#187;</text><ellipse cx="24.5" cy="225.9453" fill="#000000" rx="3" ry="3" style="stroke:#000000;stroke-width:1.0;"/><text fill="#000000" font-family="sans-serif" font-size="14" font-weight="bold" lengthAdjust="spacing" textLength="82" x="33.5" y="229.292">carteira_id</text><text fill="#000000" font-family="sans-serif" font-size="14" lengthAdjust="spacing" textLength="93" x="119.5" y="229.292">number &#171;FK&#187;</text><line style="stroke:#181818;stroke-width:1.0;" x1="14.5" x2="225.5" y1="236.5938" y2="236.5938"/><ellipse cx="24.5" cy="250.2422" fill="#000000" rx="3" ry="3" style="stroke:#000000;stroke-width:1.0;"/><text fill="#000000" font-family="sans-serif" font-size="14" font-weight="bold" lengthAdjust="spacing" textLength="39" x="33.5" y="253.5889">peso</text><text fill="#000000" font-family="sans-serif" font-size="14" lengthAdjust="spacing" textLength="54" x="76.5" y="253.5889">number</text></g><!--class Papel--><g id="elem_Papel"><rect codeLine="16" fill="#F1F1F1" height="80.5938" id="Papel" rx="2.5" ry="2.5" style="stroke:#181818;stroke-width:0.5;" width="226" x="7" y="321"/><ellipse cx="96.75" cy="337" fill="#ADD1B2" rx="11" ry="11" style="stroke:#181818;stroke-width:1.0;"/><path d="M100.8594,343 L93.1406,343 L93.1406,330.6094 L100.8594,330.6094 L100.8594,332.7656 L95.5938,332.7656 L95.5938,335.4375 L100.3594,335.4375 L100.3594,337.5938 L95.5938,337.5938 L95.5938,340.8438 L100.8594,340.8438 L100.8594,343 Z " fill="#000000"/><text fill="#000000" font-family="sans-serif" font-size="14" lengthAdjust="spacing" textLength="38" x="117.25" y="341.8467">Papel</text><line style="stroke:#181818;stroke-width:0.5;" x1="8" x2="232" y1="353" y2="353"/><ellipse cx="18" cy="366.6484" fill="#000000" rx="3" ry="3" style="stroke:#000000;stroke-width:1.0;"/><text fill="#000000" font-family="sans-serif" font-size="14" font-weight="bold" lengthAdjust="spacing" textLength="103" x="27" y="369.9951">papel_codigo</text><text fill="#000000" font-family="sans-serif" font-size="14" lengthAdjust="spacing" textLength="93" x="134" y="369.9951">number &#171;FK&#187;</text><line style="stroke:#181818;stroke-width:1.0;" x1="8" x2="232" y1="377.2969" y2="377.2969"/><ellipse cx="18" cy="390.9453" fill="#000000" rx="3" ry="3" style="stroke:#000000;stroke-width:1.0;"/><text fill="#000000" font-family="sans-serif" font-size="14" font-weight="bold" lengthAdjust="spacing" textLength="39" x="27" y="394.292">peso</text><text fill="#000000" font-family="sans-serif" font-size="14" lengthAdjust="spacing" textLength="54" x="70" y="394.292">number</text></g><!--link Carteira to Empresa--><g id="link_Carteira_Empresa"><path codeLine="22" d="M120,112.27 C120,131.22 120,126.96 120,145.89 " fill="none" id="Carteira-Empresa" style="stroke:#181818;stroke-width:1.0;"/><line style="stroke:#181818;stroke-width:1.0;" x1="116" x2="124" y1="108.27" y2="108.27"/><line style="stroke:#181818;stroke-width:1.0;" x1="116" x2="124" y1="111.27" y2="111.27"/><line style="stroke:#181818;stroke-width:1.0;" x1="120" x2="120" y1="112.27" y2="104.27"/><line style="stroke:#181818;stroke-width:1.0;" x1="120" x2="126" y1="155.89" y2="163.89"/><line style="stroke:#181818;stroke-width:1.0;" x1="120" x2="114" y1="155.89" y2="163.89"/><line style="stroke:#181818;stroke-width:1.0;" x1="120" x2="120" y1="155.89" y2="163.89"/><ellipse cx="120" cy="149.89" fill="none" rx="4" ry="4" style="stroke:#181818;stroke-width:1.0;"/></g><!--link Empresa to Papel--><g id="link_Empresa_Papel"><path codeLine="23" d="M120,269.23 C120,288.51 120,294.5 120,312.88 " fill="none" id="Empresa-Papel" style="stroke:#181818;stroke-width:1.0;"/><line style="stroke:#181818;stroke-width:1.0;" x1="116" x2="124" y1="265.23" y2="265.23"/><line style="stroke:#181818;stroke-width:1.0;" x1="116" x2="124" y1="268.23" y2="268.23"/><line style="stroke:#181818;stroke-width:1.0;" x1="120" x2="120" y1="269.23" y2="261.23"/><line style="stroke:#181818;stroke-width:1.0;" x1="120" x2="126" y1="312.88" y2="320.88"/><line style="stroke:#181818;stroke-width:1.0;" x1="120" x2="114" y1="312.88" y2="320.88"/><line style="stroke:#181818;stroke-width:1.0;" x1="120" x2="120" y1="312.88" y2="320.88"/><line style="stroke:#181818;stroke-width:1.0;" x1="124" x2="116" y1="310.88" y2="310.88"/></g><!--SRC=[bP0z3i8m34RtdC9pfDoWwe9WOU46LMW-LP78Zz8WWHBkJjkG5eOEZFxqx6SRDkhuf8CC4Jf8Ieo8E76k5UTax-QAG4qpm2B82DMs4o14fQmpcBY8HwoHn-ZMLlPY34LnD3vW_3AW1DslwNHU50lHVxRQGSIsnvxq8ZrkczBFPTSxfGVtxyJrHJaBuLAzXzMxvZYdOdm3]--></g></svg>